<?xml version="1.0" encoding="UTF-8" standalone="no"?>
<!-- Created with Inkscape (http://www.inkscape.org/) -->

<svg
   version="1.1"
   id="svg1"
   width="1071.6869"
   height="361.00632"
   viewBox="0 0 1071.6869 361.00632"
   xmlns="http://www.w3.org/2000/svg"
   xmlns:svg="http://www.w3.org/2000/svg">
  <defs
     id="defs1" />
  <g
     id="g1"
     transform="translate(80.026253,29.041613)">
    <rect
       style="fill:#0d1117;fill-opacity:1;stroke-width:4.41897;stroke-linejoin:round;stroke-miterlimit:3.7;paint-order:stroke fill markers"
       id="rect1"
       width="1071.6869"
       height="361.00632"
       x="-80.026253"
       y="-29.041613"
       ry="46.94701" />
    <path
       style="fill:#ffffff;fill-opacity:1"
       d="m 401,272.99707 c -5.05404,-0.97446 -7.8424,-2.73878 -10.04977,-6.35895 -2.85504,-4.68235 -2.56062,-6.68617 0.98238,-6.68617 2.04144,0 3.123,0.59984 3.55911,1.97391 1.05424,3.3216 5.42637,6.02608 9.74193,6.02608 5.24206,0 9.19113,-4.09062 10.68823,-11.07134 1.7054,-7.95198 1.51596,-8.47485 -1.99895,-5.51725 -3.77924,3.18002 -6.74715,3.98123 -12.3911,3.34508 -8.72118,-0.98301 -13.53513,-7.02331 -13.52809,-16.97436 0.008,-11.16039 8.84535,-18.08155 20.79898,-16.289 5.69759,0.85441 11.44728,6.14153 13.0819,12.02943 1.58356,5.70403 1.37874,21.22762 -0.35722,27.07322 -1.52279,5.12781 -6.3379,10.74654 -10.0274,11.70096 -4.65121,1.2032 -7.19921,1.38481 -10.5,0.74839 z m 8.56811,-24.50913 c 6.80741,-2.84432 8.30788,-12.92466 2.78234,-18.69209 -3.76462,-3.92941 -10.85388,-4.06774 -14.63604,-0.28558 -5.41725,5.41725 -4.01253,15.56412 2.60657,18.82839 3.9629,1.95433 4.89118,1.96931 9.24713,0.14928 z m 34.26797,24.46717 c -5.44131,-0.98069 -8.7717,-3.62029 -11.15028,-8.83751 -1.78486,-3.91491 -2.13185,-6.59653 -2.15646,-16.66565 -0.0265,-10.84662 0.21095,-12.47558 2.47066,-16.94803 3.65412,-7.23226 6.66955,-9.05197 15,-9.05197 8.33045,0 11.34588,1.81971 15,9.05197 2.25289,4.45894 2.5,6.13417 2.5,16.94803 0,10.80447 -0.24907,12.49647 -2.5,16.98322 -3.62437,7.22442 -10.1803,10.13908 -19.16392,8.51994 z m 10.6271,-7.37544 c 3.19276,-3.19275 4.52567,-8.53177 4.52567,-18.12772 0,-14.23635 -3.30249,-20.5 -10.80854,-20.5 -8.01565,0 -11.18532,5.86943 -11.17473,20.69282 0.0101,14.17575 3.32972,20.30717 10.99442,20.30717 2.97157,0 4.74,-0.64909 6.46318,-2.37227 z m 154.84965,7.21875 c -5.13282,-1.15147 -9.75197,-6.04989 -11.36948,-12.05685 -0.67234,-2.49689 -0.98097,-8.96991 -0.75157,-15.76313 0.32263,-9.55395 0.7774,-12.26666 2.6574,-15.85165 5.68038,-10.83195 23.62126,-10.83195 29.30164,0 1.88,3.58499 2.33477,6.2977 2.6574,15.85165 0.45152,13.37076 -0.63313,18.56557 -4.88829,23.41191 -2.19663,2.50182 -4.33287,3.69888 -8.00714,4.48687 -2.75618,0.5911 -5.10158,1.02653 -5.21201,0.96763 -0.11043,-0.0589 -2.08501,-0.52979 -4.38795,-1.04643 z m 10.97992,-6.86212 c 1.40936,-1.1086 3.12812,-3.69609 3.81948,-5.74999 1.49904,-4.45337 1.53273,-22.59727 0.049,-26.38833 -1.75268,-4.47826 -5.09328,-6.84952 -9.59978,-6.81423 -4.78072,0.0374 -6.61992,1.24096 -9.03319,5.91108 -2.18046,4.2196 -2.58626,21.51092 -0.64048,27.29148 1.57189,4.66981 5.40387,7.76563 9.61223,7.76563 1.77666,0 4.38339,-0.90704 5.79275,-2.01564 z m 73.83005,7.03507 c -7.65114,-1.85515 -11.58183,-7.14373 -13.05916,-17.57055 -1.67685,-11.83497 1.20871,-24.77038 6.61655,-29.66073 2.77445,-2.50896 8.77836,-4.79133 12.53769,-4.76618 5.37652,0.036 11.217,3.26736 13.10798,7.25231 2.31518,4.87887 2.12287,5.72573 -1.30018,5.72573 -2.26556,0 -3.32906,-0.686 -4.46301,-2.87882 -1.73358,-3.35237 -3.32105,-4.12118 -8.5096,-4.12118 -5.02315,0 -8.479,2.86696 -10.45843,8.67628 -1.84573,5.41691 -2.21904,12.00016 -0.51453,9.0737 2.67421,-4.59135 13.84324,-6.30378 20.503,-3.14352 10.8519,5.14956 10.58295,24.16525 -0.42141,29.79526 -3.65735,1.87116 -9.98595,2.60041 -14.0389,1.6177 z m 12.11142,-7.9374 c 2.95987,-2.64463 3.26578,-3.44852 3.26578,-8.58202 0,-5.17694 -0.29183,-5.92481 -3.39326,-8.69593 -2.98508,-2.66717 -3.93149,-2.97121 -7.8677,-2.52755 -6.77282,0.7634 -9.73904,4.21364 -9.73904,11.32824 0,5.0152 0.31962,5.84488 3.26578,8.47726 2.4456,2.18514 4.26242,2.91797 7.23422,2.91797 2.9718,0 4.78862,-0.73283 7.23422,-2.91797 z m -342.56755,7.2513 C 363.3,271.91861 363,263.61418 363,253.83097 v -17.78764 l -6.75,-0.29569 c -6.0127,-0.26339 -6.78316,-0.52818 -7.05362,-2.42411 -0.2604,-1.82546 0.34384,-2.2255 4.24525,-2.81056 4.81918,-0.72268 10.0222,-4.29634 11.07231,-7.60494 0.39205,-1.23523 1.5173,-1.95608 3.05345,-1.95608 H 370 v 26 25.99999 h -2.83333 c -1.55834,0 -3.13334,-0.3 -3.5,-0.66667 z m 126,0 C 489.3,271.91861 489,263.59362 489,253.78528 v -17.83333 h -6.5 c -6.18591,0 -6.5,-0.11543 -6.5,-2.38871 0,-1.96863 0.65947,-2.51234 3.75,-3.09175 5.22544,-0.97965 8.96032,-3.40599 10.32894,-6.71011 0.81422,-1.9657 1.87807,-2.80943 3.54238,-2.80943 H 496 v 26 25.99999 h -2.83333 c -1.55834,0 -3.13334,-0.3 -3.5,-0.66667 z m 64.22264,-0.0833 c -0.62137,-4.21016 2.39468,-11.37288 6.26337,-14.87472 1.29103,-1.1686 5.35968,-4.00556 9.04146,-6.30436 12.82197,-8.00569 16.07146,-14.95916 9.88278,-21.14783 -2.36236,-2.3624 -3.78398,-2.92311 -7.4111,-2.92311 -3.75105,0 -4.89925,0.4887 -6.99221,2.97605 -1.3773,1.63682 -2.80305,4.33682 -3.16835,6 -0.56221,2.55971 -1.13275,3.02395 -3.71638,3.02395 -3.00364,0 -3.04333,-0.0663 -2.49379,-4.16342 0.72577,-5.41102 3.28161,-8.80497 8.72534,-11.58658 13.13244,-6.71035 28.0335,3.61353 24.11122,16.70493 -1.72923,5.77166 -5.22462,9.36296 -14.65988,15.06212 C 565.79294,259.60724 561,263.87984 561,266.0868 c 0,0.47583 6.075,0.86514 13.5,0.86514 H 588 v 3 3 h -17 c -9.35,0 -17.04981,-0.3375 -17.11069,-0.75 z m 83.7481,-0.0277 c -0.76543,-1.23849 2.86888,-11.01773 4.95971,-13.34564 1.04659,-1.16525 5.98847,-4.79824 10.98196,-8.07331 4.99349,-3.27507 9.83099,-7.22757 10.75,-8.78332 4.24777,-7.19089 -0.26793,-15.02005 -8.66326,-15.02005 -3.75105,0 -4.89925,0.4887 -6.99221,2.97605 -1.3773,1.63682 -2.80305,4.33682 -3.16835,6 -0.56221,2.55971 -1.13275,3.02395 -3.71638,3.02395 -3.00364,0 -3.04333,-0.0663 -2.49379,-4.16342 0.72469,-5.40297 3.26725,-8.78531 8.76345,-11.65793 8.69448,-4.54422 20.16045,-1.08709 23.42095,7.06168 3.74046,9.34833 -0.29258,16.49238 -13.97661,24.75793 C 649.79697,259.6048 645,263.87757 645,266.0868 c 0,0.47583 6.075,0.86514 13.5,0.86514 H 672 v 3 3 h -16.94098 c -9.31754,0 -17.15727,-0.34995 -17.42161,-0.77766 z M 515,252.45195 v -2.5 h 11 11 v 2.5 2.5 H 526 515 Z M 367.46134,194.97261 c -8.42304,-1.25498 -13.19901,-4.62243 -17.04857,-12.02066 -1.54946,-2.9778 -1.88197,-6.67047 -2.22866,-24.75 l -0.40749,-21.25 H 354.88831 362 v 20.56574 c 0,12.19289 0.4192,21.34902 1.02964,22.48965 3.64956,6.81926 19.34774,6.34261 22.01332,-0.66839 C 385.56933,177.95449 386,167.85105 386,156.88685 v -19.9349 h 6.5 6.5 l -0.022,21.25 c -0.0192,18.58958 -0.25598,21.76532 -1.89116,25.36609 -4.01055,8.83152 -15.97705,13.43811 -29.62554,11.40457 z m 120.45911,-0.0204 c -10.05319,-1.72471 -18.35578,-8.77336 -21.50608,-18.25801 -2.585,-7.78273 -1.62666,-19.72611 2.14377,-26.71671 3.27691,-6.07558 9.51452,-11.39614 15.21712,-12.97989 9.96218,-2.76675 22.98453,-0.40772 29.07206,5.26646 2.8741,2.67895 6.15268,8.88586 6.15268,11.64809 0,1.82108 -0.61664,2.03571 -5.75,2.00132 -5.37251,-0.036 -5.88164,-0.24935 -7.75521,-3.25 -2.79844,-4.4819 -7.92649,-6.92941 -13.35903,-6.37599 -5.54081,0.56445 -9.02574,3.10906 -11.94648,8.72305 -3.06404,5.88942 -2.85792,18.22953 0.37686,22.56217 6.91151,9.25721 19.15909,9.79804 24.47434,1.08074 1.07363,-1.7608 1.95373,-3.98895 1.95578,-4.95145 0.003,-1.4868 0.98135,-1.75 6.50374,-1.75 7.30055,0 7.41336,0.15982 4.98038,7.0556 -2.27067,6.43576 -5.86043,10.50317 -11.72207,13.28179 -6.09503,2.88924 -12.35787,3.77453 -18.83786,2.66283 z m 165.27764,-1.67303 c -8.24128,-4.06154 -8.23645,-16.72447 0.008,-20.60997 1.81173,-0.85385 7.02954,-2.09466 11.59513,-2.75735 10.38604,-1.50752 13.18533,-3.86103 9.91383,-8.33507 -0.70831,-0.96867 -3.16717,-2.0099 -5.47848,-2.31991 -3.76894,-0.50553 -4.49411,-0.24055 -7.16416,2.61774 -2.73925,2.93238 -3.39992,3.15672 -8.47809,2.87879 l -5.50734,-0.30142 1.84317,-4.10589 c 2.67668,-5.96301 8.15576,-8.39415 18.91769,-8.39415 8.86015,0 13.44034,1.36578 16.65216,4.96554 1.79008,2.00629 2.05248,4.06771 2.5,19.63982 l 0.5,17.39824 -5.64301,-0.002 c -4.14212,-0.001 -5.79921,-0.40884 -6.23028,-1.53219 -0.51063,-1.33068 -1.1066,-1.26543 -4.56715,0.5 -4.92696,2.51355 -14.13265,2.68807 -18.86147,0.35758 z m 20.05887,-8.13971 c 1.12111,-1.1211 2.17938,-3.87904 2.46674,-6.42851 l 0.50328,-4.46505 -6.84513,1.40768 C 661.83174,177.20621 659,179.08733 659,182.55023 c 0,5.29176 9.77853,7.06763 14.25696,2.5892 z m 84.20167,7.93286 c -8.16911,-3.71075 -12.12318,-11.6982 -11.15064,-22.52497 1.03474,-11.5193 9.19179,-18.59541 21.43602,-18.59541 14.21014,0 22.25599,7.77255 22.25599,21.5 0,9.93831 -4.041,16.53005 -12.23153,19.95227 -5.08729,2.12561 -15.2658,1.95926 -20.30984,-0.33193 z m 15.37639,-7.53503 c 3.80368,-1.96695 5.59355,-5.83412 5.59355,-12.08531 0,-6.25119 -1.78987,-10.11836 -5.59355,-12.08531 -4.47058,-2.31183 -7.69826,-1.75145 -11.43502,1.98531 -3.19005,3.19005 -3.4,3.81373 -3.4,10.1 0,6.28627 0.20995,6.90995 3.4,10.1 3.73676,3.73676 6.96444,4.29714 11.43502,1.98531 z m 73.4788,7.46446 C 842.23265,190.51326 841,188.13288 841,182.7402 c 0,-7.88977 4.08566,-10.95667 17.04472,-12.79459 C 866.77311,168.7077 869,167.59537 869,164.47347 c 0,-6.58648 -11.94881,-7.3188 -14.86829,-0.91125 -0.95666,2.09963 -1.7591,2.38973 -6.61027,2.38973 -4.59327,0 -5.52081,-0.29418 -5.5177,-1.75 0.007,-3.36787 4.01679,-8.35685 8.26692,-10.28618 8.77796,-3.98473 26.64221,-1.74692 29.54604,3.70117 0.53793,1.00925 1.13674,9.59766 1.33068,19.08535 l 0.35262,17.25034 -5.75,-3.4e-4 c -4.44429,-2.6e-4 -5.75,-0.34096 -5.75,-1.50034 0,-1.87089 0.19227,-1.89225 -4.5,0.5 -5.29539,2.69974 -14.7997,2.7244 -19.18618,0.0498 z m 18.61466,-6.51278 C 868.23049,184.7814 869,183.17872 869,178.00909 v -3.77928 l -4.25,0.98267 c -10.10976,2.33754 -11.22545,3.01642 -11.56094,7.03467 -0.25958,3.109 0.0708,3.87727 2,4.65109 3.412,1.36858 6.55696,1.23641 9.73942,-0.4093 z M 411,165.37097 v -28.58099 l 17.82646,0.33099 c 17.36651,0.32244 17.93012,0.39963 21.84372,2.99174 5.0311,3.33227 7.60414,8.58664 7.54289,15.40319 -0.11459,12.75243 -8.36509,18.43605 -26.76229,18.43605 H 424 v 10 10 h -6.5 -6.5 z m 32.5866,-4.7248 c 3.1538,-3.66651 3.13771,-8.06082 -0.0411,-11.23967 -2.22308,-2.22309 -3.26038,-2.45455 -11,-2.45455 H 424 v 8.60262 8.60261 l 8.5866,-0.35263 c 7.96147,-0.32696 8.7623,-0.5569 11,-3.15838 z m 121.88011,32.05578 C 564.56797,190.31434 547,137.49177 547,137.17709 c 0,-0.17409 3.00154,-0.18346 6.6701,-0.0208 l 6.6701,0.29569 6.66344,20 6.66344,20 6.74959,-20.25 6.74959,-20.25 h 6.41687 c 3.52928,0 6.41687,0.37742 6.41687,0.83872 0,0.686 -13.74452,41.03314 -18.02458,52.91128 l -1.17107,3.25 h -7.43356 c -5.02924,0 -7.58575,-0.4043 -7.90408,-1.25 z M 605,173.45195 v -20.5 h 6 6 v 20.5 20.5 h -6 -6 z m 22,-8 v -28.5 h 6 6 v 28.5 28.5 h -6 -6 z m 70,8 v -20.5 h 5.5 c 5.22926,0 5.5,0.12557 5.5,2.55089 v 2.55089 l 3.62004,-2.76114 c 4.60069,-3.50911 14.27362,-4.48123 19.20667,-1.93025 5.61815,2.90526 6.56344,6.19511 6.99359,24.33961 l 0.38524,16.25 H 732.10277 726 v -12.9349 c 0,-17.18137 -1.10608,-20.0188 -7.81574,-20.04979 C 710.51348,160.93186 709,164.33211 709,181.60117 v 12.35078 h -6 -6 z m 112,20.1999 c 0,-0.16506 -3.15,-9.1913 -7,-20.05832 -3.85,-10.86702 -7,-19.97845 -7,-20.24762 0,-0.26917 2.75832,-0.35542 6.1296,-0.19168 l 6.12961,0.29772 3.96178,12.5 c 2.17899,6.875 4.28665,12.84349 4.6837,13.2633 0.39705,0.41982 2.67152,-5.31768 5.05436,-12.75 l 4.33245,-13.5133 h 5.93758 c 3.26567,0 5.78759,0.37395 5.60425,0.831 -0.18333,0.45705 -3.44952,9.68205 -7.2582,20.5 l -6.92487,19.669 h -6.82513 c -3.75382,0 -6.82513,-0.13505 -6.82513,-0.3001 z m -204,-52.1999 v -4.5 h 6 6 v 4.5 4.5 h -6 -6 z"
       id="path1" />
    <path
       d="m 98.564821,283.96154 c -0.215869,-7.30399 -2.908105,-16.92419 -7.251022,-25.91017 -5.591436,-11.56931 -17.740661,-23.8719 -29.565695,-29.93892 -9.205215,-4.72288 -21.169048,-8.15091 -28.446681,-8.15091 h -4.840037 l 0.01736,-3.75 c 0.0324,-6.99664 2.940896,-17.591 7.188818,-26.18564 7.892115,-15.96777 23.395745,-28.92804 41.627167,-34.79824 10.562287,-3.40088 25.955199,-4.16425 36.763879,-1.82321 26.16319,5.66666 48.13609,26.35922 53.88521,50.74538 0.8184,3.47144 1.49466,8.3851 1.50279,10.91925 l 0.0148,4.60755 -6.06769,0.6342 c -17.86848,1.86762 -37.43217,12.52313 -48.48722,26.4089 -8.25616,10.37021 -12.08057,19.56759 -15.277834,36.74181 l -0.930831,5 z m 127.396569,2.34897 c -3.85,-0.8184 -9.7,-2.69421 -13,-4.16848 l -6,-2.68049 7,-0.64286 c 3.85,-0.35357 11.95,-1.91563 18,-3.47124 9.36864,-2.40892 13.00212,-2.83265 24.5,-2.85714 12.90396,-0.0275 22.22176,1.40301 23.59325,3.62211 0.92031,1.4891 -15.66635,8.66803 -23.80109,10.30144 -9.48471,1.90447 -21.032,1.86508 -30.29216,-0.10334 z m -23,-13.99673 c -8.50816,-1.34269 -10.48169,-2.41785 -15.49436,-8.44118 -2.7531,-3.30819 -5.00564,-6.25876 -5.00564,-6.55681 0,-0.82763 9.32851,0.61846 21,3.25538 14.71974,3.32561 23.52636,3.15405 39.02509,-0.76024 10.51928,-2.65671 14.43447,-3.16335 24.97491,-3.23188 10.49164,-0.0682 13.75128,0.30255 20.28798,2.30756 4.28339,1.31386 8.01897,2.76256 8.30128,3.21935 0.28231,0.45679 -1.52885,2.81525 -4.02479,5.24103 l -4.53808,4.41051 -7.7632,-2.59954 c -6.98106,-2.33764 -9.27441,-2.59998 -22.76319,-2.60393 -13.27603,-0.004 -16.20678,0.31773 -25.5,2.79826 -10.10135,2.69623 -22.2087,3.95433 -28.5,2.96149 z m 5,-16.89019 c -10.38856,-2.37263 -22.63234,-4.46205 -26.14717,-4.46205 -2.88605,0 -3.63199,-0.51755 -5.059,-3.51001 -1.04218,-2.18549 -1.3191,-3.85959 -0.73382,-4.43641 1.62511,-1.6016 18.57316,-3.32978 26.93076,-2.74611 4.40507,0.30764 12.95923,1.71024 19.00923,3.11688 14.62246,3.39976 21.2418,3.29082 36.52509,-0.60115 10.74766,-2.73695 14.27486,-3.1849 25.47491,-3.23528 10.08141,-0.0453 14.17866,0.34916 18.25,1.75717 2.8875,0.99861 5.25,2.24444 5.25,2.76852 0,0.93934 -4.06051,9.11359 -5.8272,11.73078 -0.74045,1.09691 -2.17918,0.88566 -7.81571,-1.14754 -15.68842,-5.65913 -30.59122,-5.85498 -52.35709,-0.68808 -13.89537,3.29856 -23.58075,3.71873 -33.5,1.45328 z m 16,-17.55204 c -16.51339,-3.57657 -18.73113,-3.91001 -26.0055,-3.91001 -3.97789,0 -11.17837,0.6881 -16.00107,1.52911 -4.8227,0.84101 -8.90554,1.39212 -9.07297,1.22469 -0.4103,-0.41031 -2.40341,-12.80373 -2.41291,-15.0038 -0.006,-1.42666 0.88672,-1.75 4.83249,-1.75 6.80867,0 19.28408,-3.39388 27.62522,-7.51531 14.04243,-6.9385 25.40579,-18.6161 32.09708,-32.98469 3.08841,-6.63193 6.32298,-19.10976 6.53452,-25.20784 0.0533,-1.53569 0.70909,1.14057 1.45737,5.94724 1.54,9.89229 5.35929,19.77825 10.81848,28.00287 4.62775,6.972 15.45489,17.18189 22.91982,21.61315 7.63898,4.53458 20.67545,8.92178 28.92696,9.73487 7.65599,0.7544 7.33692,0.15524 5.61978,10.55293 -1.05133,6.36605 -1.35764,6.982 -3.25,6.53534 -20.17631,-4.76234 -30.32546,-4.7099 -50.08927,0.25879 -14.07822,3.53931 -21.20776,3.74327 -34,0.97266 z M 89.961386,150.53262 c -0.55,-0.22401 -2.6875,-0.68954 -4.75,-1.0345 l -3.75,-0.62721 v -6.45468 -6.45469 h 17.5 17.500004 v 6.38337 c 0,5.75427 -0.22174,6.44951 -2.25,7.05448 -2.63951,0.78729 -22.787637,1.72884 -24.250004,1.13323 z m 151.596864,-1.86324 c -0.19967,-5.75607 -3.36179,-18.33606 -6.16047,-24.5084 -8.89886,-19.62602 -26.03486,-33.813684 -47.34635,-39.200184 -4.35048,-1.09959 -10.13983,-1.99925 -12.86523,-1.99925 h -4.95526 l 0.68634,-5.75 c 1.00377,-8.40943 3.34195,-16.91104 6.23726,-22.6786 8.82467,-17.57911 22.5995,-29.5121 41.80685,-36.21684 7.33533,-2.56056 9.20472,-2.79258 22.5,-2.79258 13.29528,0 15.16467,0.23202 22.5,2.79258 27.44625,9.58071 44.67687,30.65641 48.02492,58.74187 l 0.66715,5.59642 -6.35366,0.59332 c -14.37144,1.34202 -29.98114,8.43437 -41.18765,18.713824 -12.35153,11.32976 -19.59517,24.7 -22.10145,40.79469 -0.74558,4.78792 -1.39918,7.44884 -1.45245,5.91315 z M 67.26234,143.58103 C 45.281421,132.50912 30.913184,112.43207 28.815138,89.857926 l -0.640951,-6.89638 h 4.196194 c 10.966203,0 28.655599,-6.41095 38.778995,-14.05419 l 5.31201,-4.0106 v 6.03239 c 0,5.80406 -0.09681,6.0324 -2.557498,6.0324 -2.390389,0 -2.537406,0.2777 -2.25,4.25 0.255623,3.53302 0.687074,4.30391 2.557498,4.56955 2.117326,0.30071 2.25,0.78718 2.25,8.25 0,7.792474 -0.04349,7.930444 -2.5,7.930444 -2.296296,0 -2.5,0.36667 -2.5,4.5 0,4.13333 0.203704,4.5 2.5,4.5 2.458333,0 2.5,0.13333 2.5,8 0,7.86667 -0.04167,8 -2.5,8 -2.296296,0 -2.5,0.36667 -2.5,4.5 0,4.13333 0.203704,4.5 2.5,4.5 2.363636,0 2.5,0.3 2.5,5.5 0,3.73498 -0.401142,5.49901 -1.25,5.49692 -0.6875,-0.002 -4.264571,-1.52154 -7.949046,-3.37743 z m 54.19905,-2.05307 c 0,-5.18416 0.12623,-5.4481 2.75,-5.75 2.48893,-0.28638 2.75,-0.69616 2.75,-4.31642 0,-3.62026 -0.26107,-4.03004 -2.75,-4.31642 -2.74015,-0.31529 -2.75,-0.3446 -2.75,-8.18358 0,-7.83898 0.01,-7.86829 2.75,-8.18358 2.46072,-0.28313 2.78235,-0.76349 3.0575,-4.56642 0.29956,-4.14036 0.22862,-4.25 -2.75,-4.25 h -3.0575 v -7.933574 c 0,-7.91144 0.008,-7.93446 2.75,-8.25 2.46072,-0.28314 2.78235,-0.76349 3.0575,-4.56642 0.29956,-4.14037 0.22862,-4.25 -2.75,-4.25 h -3.0575 v -6.55902 c 0,-7.27055 -0.3376,-7.18941 6.92048,-1.66329 9.07903,6.91253 23.12729,12.44958 34.99204,13.79192 l 6.08748,0.68872 -0.0148,4.62083 c -0.0649,20.302084 -16.45227,44.723734 -36.86663,54.941444 -4.59259,2.29867 -8.97305,4.17939 -9.73437,4.17939 -1.0091,0 -1.3842,-1.47242 -1.3842,-5.43358 z M 81.461386,118.96154 v -8 h 17.5 17.500004 v 8 8 h -17.500004 -17.5 z m 0,-24.999994 v -8 h 17.5 17.500004 v 8 7.999994 h -17.500004 -17.5 z m 0,-25.5 v -8.5 h 17.5 17.500004 v 8.5 8.5 h -17.500004 -17.5 z m 7.218915,-18.25 c 6.387372,-12.42415 9.617469,-22.62255 9.897677,-31.25 l 0.146154,-4.5 0.952134,5.5 c 1.482744,8.56509 4.722564,18.96231 7.626454,24.47478 1.45596,2.76387 2.79979,5.36272 2.98627,5.77522 0.18649,0.4125 -4.68593,0.75 -10.827604,0.75 -6.141667,0 -10.993155,-0.3375 -10.781085,-0.75 z"
       style="fill:#007cb4;fill-opacity:1"
       id="path1-9" />
    <path
       d="m 560.98806,125.08735 c -0.68984,-1.79767 1.30374,-7.33666 7.32998,-20.36573 2.39212,-5.171903 4.18531,-9.567453 3.98486,-9.767893 -0.20044,-0.20044 -1.66889,0.31583 -3.26322,1.14728 -6.73159,3.51055 -10.05136,0.009 -8.97882,-9.47129 0.8235,-7.27872 3.39175,-16.24315 4.93898,-17.23935 3.81811,-2.45834 4.85729,0.19553 3.06308,7.82257 -1.78997,7.60906 -1.8426,13.41212 -0.12164,13.41212 2.63114,0 12.38207,-9.92702 15.50355,-15.78352 3.65205,-6.85194 5.28934,-8.50166 7.56932,-7.62675 2.71882,1.04331 1.90065,3.75405 -4.85401,16.08211 -8.64312,15.77474 -17.51924,35.218413 -17.51924,38.376943 0,1.40317 -0.54,3.09122 -1.2,3.75122 -1.70074,1.70074 -5.75197,1.48873 -6.45284,-0.33771 z m 290.39419,0.28771 c -0.74694,-2.19523 1.34263,-7.95077 6.9347,-19.10103 2.99553,-5.97291 5.26081,-11.045443 5.03396,-11.272293 -0.22685,-0.22685 -1.7169,0.26782 -3.31123,1.09927 -6.81547,3.55429 -10.03428,0.0311 -9.01962,-9.87249 1.32018,-12.88572 4.82533,-19.82754 8.27149,-16.38138 1.06076,1.06075 1.03073,2.2908 -0.16567,6.78674 -1.95817,7.35859 -1.96313,13.99118 -0.0105,13.99118 2.42659,0 13.0595,-11.14691 15.80945,-16.57369 2.99825,-5.91676 4.84508,-7.69776 7.08928,-6.83658 2.57514,0.98818 1.99857,3.00917 -4.08115,14.30514 -10.05666,18.685023 -18.1145,35.639403 -18.85792,39.678633 -0.39746,2.15957 -1.22026,4.25711 -1.82842,4.66119 -1.77156,1.17706 -5.40106,0.87708 -5.86441,-0.48469 z m -94.74135,-1.25 c -1.68989,-2.03619 0.0393,-4.03539 4.82999,-5.58417 9.3852,-3.03415 17.83396,-9.37662 21.15056,-15.87771 1.69017,-3.313013 3.94668,-10.472933 5.46183,-17.330423 0.55826,-2.52663 -0.17013,-2.11216 -7.65546,4.35616 -12.70008,10.974553 -21.32259,14.540793 -23.82985,9.85593 -3.88586,-7.2608 20.90822,-32.82227 32.14685,-33.14181 1.69763,-0.0483 3.38123,0.38657 3.74134,0.96631 0.36011,0.57975 1.77974,1.21216 3.15474,1.40538 1.5087,0.212 2.42934,0.94588 2.32181,1.85081 -0.47246,3.97578 -5.40444,25.0096 -6.76625,28.85656 -3.35982,9.491113 -12.13233,18.245553 -23.66092,23.612183 -6.19397,2.88333 -9.12686,3.16082 -10.89464,1.03078 z m 13.254,-32.446133 c 2.55506,-1.62037 7.93066,-6.0881 11.94578,-9.92828 5.46594,-5.2278 7.01604,-7.2718 6.1692,-8.1349 -2.61912,-2.6694 -18.72152,9.98901 -22.84148,17.95613 -1.96877,3.80718 -1.13769,3.82601 4.7265,0.10705 z M 352.30757,109.95839 c -1.54905,-1.54905 -0.35583,-7.13422 4.76917,-22.323343 l 5.43583,-16.11036 -6.34832,3.55018 c -6.57571,3.67735 -9.88764,4.38781 -11.12458,2.3864 -0.90016,-1.4565 2.51373,-4.27585 10.69957,-8.83621 3.45538,-1.925 7.75681,-4.9625 9.55875,-6.75 3.37117,-3.34416 6.1154,-4.07752 8.04343,-2.14948 0.80069,0.80069 0.48235,2.50345 -1.16847,6.25 -3.14073,7.12792 -12.53205,36.032553 -12.53205,38.571183 0,3.6336 -5.24259,7.50238 -7.33333,5.41163 z m 20.33748,-2.82832 c -1.73179,-2.08669 0.64761,-5.49128 6.73051,-9.630423 23.03561,-15.6747 34.83582,-27.33961 32.86147,-32.48468 -0.98766,-2.5738 -8.27565,-1.25402 -16.69519,3.02332 -7.48427,3.8022 -9.90094,3.99091 -9.90094,0.77314 0,-2.69194 2.47176,-4.46907 11.18048,-8.03844 21.75387,-8.91607 30.66256,2.48753 14.65531,18.75959 -2.38468,2.42414 -9.68488,8.38664 -16.22266,13.25 -6.53778,4.86336 -11.07486,8.842483 -10.08242,8.842483 3.71116,0 25.11165,-3.140723 28.74932,-4.219233 4.35449,-1.29103 6.29978,-0.18296 5.28605,3.011023 -0.93264,2.93849 -4.3936,3.92281 -21.70914,6.17424 -18.74478,2.43727 -23.19721,2.53382 -24.85279,0.53898 z m 54.35748,-0.005 c -1.08299,-2.82223 0.49843,-4.29037 6.92509,-6.42902 10.88971,-3.623883 21.71328,-12.150713 21.71328,-17.105793 0,-2.59404 -2.2263,-2.49049 -13.5,0.62793 -13.29065,3.67633 -14.13598,3.79787 -14.77802,2.12476 -0.30967,-0.80701 1.70393,-5.23617 4.47468,-9.84259 2.77075,-4.60641 5.41566,-9.36625 5.87757,-10.57741 0.46192,-1.21115 2.13962,-2.87424 3.72824,-3.69574 4.2126,-2.17843 17.733,-5.58712 24.92426,-6.28379 5.29863,-0.51331 6.32451,-0.3484 6.88278,1.10642 1.01256,2.63869 -0.33061,3.29086 -11.41471,5.54233 -14.94891,3.03652 -17.17637,4.14056 -20.50433,10.16295 -1.54524,2.79632 -2.67024,5.21327 -2.5,5.37099 0.17024,0.15773 3.23453,-0.33111 6.80953,-1.0863 12.25948,-2.58972 18,-1.17176 18,4.44617 0,4.02056 -4.99468,11.23077 -10.66133,15.39047 -5.71288,4.193643 -20.86779,11.748613 -23.56716,11.748613 -1.00885,0 -2.0933,-0.675 -2.40988,-1.5 z m 112.99582,-3.01088 c -0.31887,-0.83098 1.94525,-7.036013 5.03139,-13.788963 3.08614,-6.75297 5.61116,-12.67651 5.61116,-13.16345 0,-1.41918 -4.66065,3.28756 -12.83635,12.96328 -8.70891,10.306763 -8.88768,10.464093 -11.91365,10.484693 -3.166,0.0215 -2.87941,-2.019813 2.59507,-18.484693 4.64101,-13.95812 4.66465,-14.00094 7.90493,-14.31336 4.0085,-0.38649 4.07183,0.39184 0.75,9.21713 -1.375,3.65304 -2.5,7.1764 -2.5,7.82969 0,0.65329 2.90675,-1.99705 6.45945,-5.88965 10.39387,-11.38829 17.57521,-13.21565 16.11777,-4.10133 -0.8551,5.34747 -9.53316,26.713463 -11.75068,28.930983 -2.21915,2.21915 -4.68406,2.36142 -5.46909,0.31566 z m 47.89255,0.50274 c -2.93466,-1.20962 -2.83948,-2.54105 0.39602,-5.539613 2.87105,-2.6608 5.29854,-3.10769 7.09926,-1.30697 2.40425,2.404243 15.25472,-3.14384 15.25472,-6.5861 0,-0.74274 -2.66713,-2.01543 -6.25,-2.98236 -9.61383,-2.59452 -11.72792,-3.64068 -12.34775,-6.11028 -0.31477,-1.25415 -0.0521,-3.25239 0.58382,-4.44053 2.88834,-5.39691 21.61865,-13.3783 25.95248,-11.05891 1.66885,0.89314 1.88294,1.49792 1.06879,3.01918 -1.39457,2.60578 -2.98165,3.44108 -6.0883,3.20436 -4.8637,-0.3706 -14.91904,4.25072 -14.91904,6.85662 0,0.40551 3.2413,1.53161 7.2029,2.50245 8.27773,2.02856 12.30078,5.13379 11.29343,8.71693 -1.01411,3.60722 -9.07102,10.437643 -14.25893,12.088333 -6.61017,2.10322 -12.33823,2.72882 -14.9874,1.63688 z m 154.14804,-0.39697 c -0.29656,-0.77281 1.99439,-6.879843 5.09099,-13.571193 3.0966,-6.69134 5.45956,-12.67793 5.25102,-13.30355 -0.20853,-0.62561 -5.0542,4.35643 -10.76815,11.07119 -8.69221,10.21466 -10.84491,12.208653 -13.18045,12.208653 -1.57732,0 -2.78262,-0.54368 -2.77114,-1.250003 0.0367,-2.25698 8.88099,-28.92615 10.06654,-30.35465 0.63692,-0.76745 2.22794,-1.39535 3.53559,-1.39535 3.09205,0 3.0694,1.92382 -0.12244,10.40377 -1.375,3.65304 -2.49711,6.96911 -2.49358,7.36906 0.004,0.39994 3.32509,-2.75115 7.38124,-7.00243 10.24663,-10.73956 15.6256,-12.43374 15.59988,-4.91341 -0.0159,4.65582 -9.35599,28.079843 -12.11888,30.393013 -2.52265,2.11204 -4.73889,2.25176 -5.47062,0.34489 z m 88.94673,-0.13881 c -0.32585,-0.84915 1.93828,-7.142843 5.03139,-13.985973 3.09311,-6.84314 5.62384,-12.75182 5.62384,-13.13041 0,-1.2104 -5.01278,3.88701 -13.67935,13.91029 -6.37812,7.37659 -9.02549,9.750003 -10.87546,9.750003 -1.67115,0 -2.43766,-0.55397 -2.42139,-1.750003 0.0278,-2.04261 8.11993,-28.15548 9.29674,-30 0.87788,-1.37599 6.67946,-1.74527 6.67946,-0.42515 0,0.45366 -1.125,4.13248 -2.5,8.17515 -1.375,4.04267 -2.5,7.77626 -2.5,8.29688 0,0.52062 3.02839,-2.32436 6.72976,-6.32217 7.36857,-7.95875 12.41012,-10.93344 14.95317,-8.8229 1.0832,0.89898 1.33924,2.30811 0.90865,5.00085 -0.87042,5.44331 -10.27878,28.127793 -12.27546,29.597343 -2.29544,1.68944 -4.25471,1.5736 -4.97135,-0.29392 z m -32.99802,-0.99484 c -0.95027,-2.47636 10.44563,-34.214123 13.0659,-36.388753 1.8368,-1.5244 4.58735,-0.27395 4.58735,2.08549 0,1.0692 -1.75266,6.08355 -3.89481,11.14301 -4.3728,10.32794 -7.10519,18.0817 -7.10519,20.162523 0,1.82615 -2.74996,4.53648 -4.60281,4.53648 -0.80298,0 -1.72567,-0.69244 -2.05044,-1.53876 z M 482.3909,102.54496 c -4.5727,-2.663352 -0.12341,-10.100793 12.64808,-21.142543 10.64386,-9.20229 18.89989,-14.11054 23.89162,-14.20369 7.14224,-0.13329 7.19587,1.77556 0.567,20.17918 -1.63495,4.53906 -3.16199,9.26406 -3.39343,10.5 -0.52736,2.816223 -4.08608,5.829123 -6.01214,5.090023 -2.00252,-0.76843 -1.81533,-4.327423 0.51333,-9.759973 2.11025,-4.92301 1.50651,-5.8759 -1.55947,-2.46131 -2.94409,3.27884 -12.98939,9.820503 -17.55247,11.430443 -4.79074,1.69027 -6.69964,1.76742 -9.10252,0.36787 z m 13.03324,-8.319053 c 2.59422,-1.31952 8.39779,-5.59091 12.89682,-9.49196 7.51097,-6.51266 10.40708,-10.35509 8.92323,-11.83894 -1.58876,-1.58875 -25.04483,16.94953 -27.683,21.87898 -1.35238,2.52696 0.0808,2.39299 5.86295,-0.54808 z m 143.41676,8.199153 c -2.03115,-2.03115 -1.32104,-7.056243 1.755,-12.419373 5.22633,-9.11216 23.16857,-23.63589 31.238,-25.28627 2.7984,-0.57233 3.50324,-1.4572 5.98584,-7.51473 3.30838,-8.07242 4.40578,-9.57963 6.97499,-9.57963 3.21612,0 3.0605,2.28086 -0.7201,10.55477 -4.54756,9.95243 -10.93264,25.7982 -14.05915,34.89042 -2.52427,7.340883 -3.50373,8.514853 -7.12458,8.539503 -2.66283,0.0181 -2.88835,-1.849572 -0.72783,-6.027563 4.25279,-8.22399 3.7256,-8.52437 -3.21273,-1.83058 -3.74519,3.6132 -8.24959,7.312853 -10.00978,8.221453 -3.75876,1.94025 -8.40353,2.14813 -10.09966,0.452 z m 13.69403,-9.672443 c 1.86672,-1.42156 6.2357,-5.96179 9.70884,-10.0894 5.10333,-6.06499 6.02461,-7.66713 4.80219,-8.35123 -1.83436,-1.02656 -4.95932,0.89193 -11.78282,7.23376 -5.63262,5.23501 -10.62224,11.7158 -10.62224,13.79673 0,1.9125 3.48181,0.77019 7.89403,-2.58986 z m 44.87797,10.066903 c -2.90557,-0.34409 -6.77845,-4.398563 -6.76223,-7.079323 0.0216,-3.57482 5.26464,-12.55131 10.59516,-18.1398 6.38127,-6.69009 13.99867,-10.97534 19.50963,-10.97534 5.45428,0 6.88544,0.83852 6.88544,4.03418 0,4.28633 -5.71511,8.38013 -16.30718,11.68105 -9.69733,3.02207 -11.78318,4.84277 -12.04289,10.51197 -0.12346,2.69508 0.25031,3.32961 2.11742,3.59462 4.16721,0.59149 8.98898,-1.86359 15.65304,-7.96999 4.24756,-3.89211 7.15406,-5.84537 8.13689,-5.46823 2.15877,0.8284 0.43111,3.75844 -6.01982,10.20938 -7.49295,7.492943 -14.28178,10.487733 -21.76546,9.601483 z m 19.41459,-27.814043 c 2.97419,-1.51245 4.53943,-3.38042 2.83259,-3.38042 -1.63304,0 -8.77705,3.79921 -9.57656,5.09284 -0.80135,1.29661 2.45061,0.47088 6.74397,-1.71242 z M 691.134,70.243667 c -1.56039,-1.14098 -1.32231,-1.99864 2.87437,-10.35473 4.89668,-9.74987 5.59834,-10.59797 8.00422,-9.67474 3.75094,1.43937 2.46077,6.66251 -4.09137,16.56345 -2.88038,4.35255 -4.46685,5.16271 -6.78722,3.46602 z m 122.07833,-11.19004 c -2.10644,-2.10644 -1.98348,-3.02655 0.65108,-4.87187 2.95951,-2.07292 3.44985,-1.98637 5.37273,0.9483 1.32269,2.01868 1.40046,2.79525 0.40061,4 -1.60976,1.93965 -4.44204,1.90595 -6.42442,-0.0764 z"
       style="fill:#007cb4;fill-opacity:1"
       id="path1-93" />
  </g>
</svg>
